<svg width="144" height="44" viewBox="0 0 144 44" fill="none" xmlns="http://www.w3.org/2000/svg">
<g clipPath="url(#clip0_4000_339546)">
<path fillRule="evenodd" clipRule="evenodd" d="M143.831 6.31929C143.831 3.21581 141.117 0.71875 137.744 0.71875H6.6724C3.29964 0.71875 0.585938 3.21581 0.585938 6.31929V38.1033C0.585938 41.2068 3.29964 43.7038 6.6724 43.7038H137.783C141.156 43.7038 143.87 41.2068 143.87 38.1033V6.31929H143.831Z" fill="#1A152C"/>
<path d="M57.1443 21.1152V19.342H61.3535C62.643 19.342 63.3954 18.5361 63.3954 17.354C63.3954 16.1361 62.625 15.3838 61.3535 15.3838H55.8012V24.0346H53.9922V13.5391H61.3535C63.7712 13.5391 65.1864 14.9898 65.1864 17.2823C65.1864 19.5391 63.7712 21.0973 61.3535 21.0973H57.1443V21.1152Z" fill="white"/>
<path d="M75.3452 24.0193L73.7691 21.3865H68.8256L69.6852 19.8999H72.8914L70.5629 15.9775L65.7987 24.0193H63.7031L69.7212 13.9895C69.9362 13.6313 70.2047 13.3984 70.6166 13.3984C71.0288 13.3984 71.2793 13.6313 71.4942 13.9895L77.53 24.0193H75.3452Z" fill="white"/>
<path d="M78.6719 24.0167V13.5391H80.4989V22.1898H87.5376V24.0167H78.6719Z" fill="white"/>
<path d="M99.7877 24.0193L98.2117 21.3865H93.2505L94.1102 19.8999H97.3163L94.9879 15.9775L90.2236 24.0193H88.1641L94.1818 13.9895C94.3967 13.6313 94.6653 13.3984 95.0775 13.3984C95.4893 13.3984 95.7399 13.6313 95.9548 13.9895L101.991 24.0193H99.7877Z" fill="white"/>
<path d="M103.117 24.0167V13.5391H109.189C112.144 13.5391 114.293 15.6346 114.293 18.6615C114.293 21.6883 112.144 24.0167 109.189 24.0167H103.117ZM109.171 22.1898C111.052 22.1898 112.448 20.7391 112.448 18.7689C112.448 16.7988 111.069 15.3838 109.171 15.3838H104.926V22.2077H109.171V22.1898Z" fill="white"/>
<path d="M115.875 24.0167V13.5391H117.72V24.0167H115.875Z" fill="white"/>
<path d="M121.339 16.3514V24.017H119.602V14.5066C119.602 13.826 119.96 13.4141 120.533 13.4141C120.801 13.4141 121.034 13.5215 121.303 13.7902L128.7 21.1335V13.4499H130.438V23.0499C130.438 23.7484 130.061 24.1424 129.524 24.1424C129.22 24.1424 128.951 24.017 128.682 23.7484L121.339 16.3514Z" fill="white"/>
<path d="M53.9766 30.7862V30.2488H54.442V27.7951H53.9766V27.2578H55.7676C55.9825 27.2578 56.1614 27.2936 56.3227 27.3653C56.484 27.4369 56.6092 27.5444 56.6989 27.6698C56.7882 27.7951 56.8242 27.9563 56.8242 28.1354V28.1892C56.8242 28.3503 56.7882 28.4757 56.7345 28.5832C56.6809 28.6906 56.6092 28.7623 56.5196 28.816C56.43 28.8697 56.3583 28.9056 56.2867 28.9414V29.031C56.3583 29.0488 56.448 29.0847 56.5376 29.1384C56.6272 29.1921 56.6989 29.2817 56.7705 29.3712C56.8242 29.4787 56.8598 29.622 56.8598 29.7832V29.8369C56.8598 30.0339 56.8062 30.1951 56.7165 30.3384C56.6272 30.4817 56.5016 30.5891 56.3407 30.6608C56.1794 30.7324 56.0001 30.7682 55.7852 30.7682H53.9766V30.7862ZM55.0512 28.7444H55.7136C55.8748 28.7444 56.0001 28.7085 56.0898 28.6369C56.1794 28.5653 56.233 28.4578 56.233 28.3145V28.2608C56.233 28.1175 56.1794 28.01 56.0898 27.9384C56.0001 27.8668 55.8748 27.8309 55.7136 27.8309H55.0512V28.7444ZM55.0512 30.2488H55.7136C55.8748 30.2488 56.0001 30.213 56.0898 30.1235C56.1794 30.0518 56.233 29.9265 56.233 29.7832V29.7295C56.233 29.5862 56.1794 29.4787 56.0898 29.3892C56.0001 29.3175 55.8748 29.2638 55.6959 29.2638H55.0332V30.2488H55.0512Z" fill="#BCAAE7"/>
<path d="M58.6875 30.7917V27.2812H59.2966V30.2544H60.9443V30.8096H58.6875V30.7917Z" fill="#BCAAE7"/>
<path d="M63.8937 30.8624C63.4639 30.8624 63.1057 30.737 62.8548 30.5042C62.6042 30.2534 62.4609 29.9131 62.4609 29.4654V28.6236C62.4609 28.1758 62.5862 27.8176 62.8548 27.5848C63.1057 27.334 63.4639 27.2266 63.8937 27.2266C64.3236 27.2266 64.6818 27.3519 64.9323 27.5848C65.1833 27.8355 65.3265 28.1758 65.3265 28.6236V29.4654C65.3265 29.9131 65.2013 30.2713 64.9323 30.5042C64.6818 30.7549 64.3236 30.8624 63.8937 30.8624ZM63.8937 30.3251C64.1623 30.3251 64.3592 30.2534 64.5025 30.0922C64.6458 29.931 64.7174 29.734 64.7174 29.4654V28.5878C64.7174 28.3191 64.6458 28.1221 64.5025 27.9609C64.3592 27.7997 64.1623 27.728 63.8937 27.728C63.6428 27.728 63.4279 27.7997 63.2846 27.9609C63.1413 28.1221 63.0697 28.3191 63.0697 28.5878V29.4654C63.0697 29.734 63.1413 29.931 63.2846 30.0922C63.4279 30.2534 63.6248 30.3251 63.8937 30.3251Z" fill="#BCAAE7"/>
<path d="M68.4987 30.8624C68.0689 30.8624 67.7283 30.737 67.4778 30.5042C67.2268 30.2534 67.1016 29.9131 67.1016 29.4654V28.6236C67.1016 28.1758 67.2268 27.8176 67.4778 27.5848C67.7283 27.334 68.0689 27.2266 68.4987 27.2266C68.9286 27.2266 69.2508 27.3519 69.4837 27.5848C69.7166 27.8176 69.8239 28.14 69.8239 28.5519V28.5878H69.2331V28.534C69.2331 28.3191 69.1791 28.14 69.0538 27.9967C68.9286 27.8534 68.7493 27.7818 68.4807 27.7818C68.2302 27.7818 68.0329 27.8534 67.8896 28.0146C67.7463 28.1758 67.6747 28.3728 67.6747 28.6415V29.5012C67.6747 29.7699 67.7463 29.9668 67.8896 30.1281C68.0329 30.2892 68.2302 30.3609 68.4807 30.3609C68.7316 30.3609 68.9286 30.2893 69.0538 30.1459C69.1791 30.0027 69.2331 29.8236 69.2331 29.6086V29.5191H69.8239V29.5908C69.8239 30.0027 69.7166 30.3251 69.4837 30.5579C69.2688 30.7549 68.9286 30.8624 68.4987 30.8624Z" fill="#BCAAE7"/>
<path d="M71.6719 30.7917V27.2812H72.2806V28.7141H72.3703L73.5882 27.2812H74.3582L72.8361 29.0186L74.4122 30.8096H73.6062L72.3523 29.341H72.263V30.8096H71.6719V30.7917Z" fill="#BCAAE7"/>
<path d="M77.2253 30.8624C76.7954 30.8624 76.4549 30.737 76.2043 30.5042C75.9534 30.2534 75.8281 29.9131 75.8281 29.4654V28.6236C75.8281 28.1758 75.9534 27.8176 76.2043 27.5848C76.4549 27.334 76.7954 27.2266 77.2253 27.2266C77.6551 27.2266 77.9773 27.3519 78.2102 27.5848C78.4432 27.8176 78.5504 28.14 78.5504 28.5519V28.5878H77.9593V28.534C77.9593 28.3191 77.9057 28.14 77.7804 27.9967C77.6551 27.8534 77.4758 27.7818 77.2073 27.7818C76.9564 27.7818 76.7594 27.8534 76.6162 28.0146C76.4729 28.1758 76.4012 28.3728 76.4012 28.6415V29.5012C76.4012 29.7699 76.4729 29.9668 76.6162 30.1281C76.7594 30.2892 76.9564 30.3609 77.2073 30.3609C77.4578 30.3609 77.6551 30.2893 77.7804 30.1459C77.9057 30.0027 77.9593 29.8236 77.9593 29.6086V29.5191H78.5504V29.5908C78.5504 30.0027 78.4432 30.3251 78.2102 30.5579C77.9773 30.7549 77.6551 30.8624 77.2253 30.8624Z" fill="#BCAAE7"/>
<path d="M80.375 30.7917V27.2812H80.9838V28.7499H82.3629V27.2812H82.972V30.7917H82.3629V29.3051H80.9838V30.7917H80.375Z" fill="#BCAAE7"/>
<path d="M84.6875 30.7917L85.6545 27.2812H86.7114L87.6784 30.7917H87.0516L86.8367 29.9857H85.5292L85.3143 30.7917H84.6875ZM85.6545 29.4484H86.6754L86.2099 27.6574H86.1203L85.6545 29.4484Z" fill="#BCAAE7"/>
<path d="M89.3672 30.7917V27.2812H89.9763V30.7917H89.3672Z" fill="#BCAAE7"/>
<path d="M91.9297 30.7917V27.2812H93.0759L93.9 30.3977H93.9896V27.2812H94.5807V30.7917H93.4345L92.6104 27.6753H92.5208V30.7917H91.9297Z" fill="#BCAAE7"/>
<path d="M100.269 30.8624C100.001 30.8624 99.7679 30.8086 99.553 30.7191C99.3561 30.6295 99.1948 30.4863 99.0695 30.3072C98.9443 30.1281 98.8906 29.9131 98.8906 29.6445V29.5191H99.4814V29.6445C99.4814 29.8773 99.553 30.0564 99.6963 30.1639C99.8396 30.2713 100.019 30.343 100.252 30.343C100.485 30.343 100.664 30.2893 100.789 30.1997C100.915 30.1101 100.968 29.9848 100.968 29.8236C100.968 29.7161 100.932 29.6266 100.879 29.5728C100.825 29.5012 100.735 29.4474 100.628 29.4116C100.52 29.3758 100.395 29.34 100.234 29.3042L100.09 29.2683C99.8576 29.2146 99.6607 29.143 99.4994 29.0713C99.3381 28.9818 99.1948 28.8743 99.1055 28.7489C99.0159 28.6236 98.9623 28.4445 98.9623 28.2296C98.9623 28.0146 99.0159 27.8355 99.1055 27.6922C99.2128 27.5489 99.3561 27.4236 99.5354 27.3519C99.7143 27.2803 99.9292 27.2266 100.18 27.2266C100.431 27.2266 100.646 27.2624 100.843 27.3519C101.04 27.4415 101.183 27.5669 101.308 27.728C101.416 27.8892 101.47 28.1042 101.47 28.3549V28.5161H100.879V28.3549C100.879 28.2116 100.843 28.1042 100.789 28.0146C100.735 27.9251 100.646 27.8713 100.556 27.8176C100.449 27.7818 100.323 27.7639 100.198 27.7639C99.9829 27.7639 99.8396 27.7997 99.7323 27.8892C99.6247 27.9609 99.571 28.0862 99.571 28.2296C99.571 28.3191 99.589 28.4087 99.6427 28.4624C99.6963 28.5161 99.7679 28.5878 99.8576 28.6236C99.9472 28.6594 100.073 28.6952 100.216 28.731L100.359 28.7669C100.592 28.8206 100.807 28.8922 100.986 28.9639C101.165 29.0355 101.308 29.1609 101.416 29.2863C101.523 29.4116 101.577 29.5907 101.577 29.8057C101.577 30.0206 101.523 30.1997 101.416 30.3609C101.308 30.5221 101.147 30.6475 100.95 30.737C100.771 30.8266 100.538 30.8624 100.269 30.8624Z" fill="#BCAAE7"/>
<path d="M103.375 30.7917V27.2812H105.614V27.8365H103.984V28.7678H105.471V29.3231H103.984V30.2723H105.65V30.8275H103.375V30.7917Z" fill="#BCAAE7"/>
<path d="M108.749 30.8624C108.319 30.8624 107.979 30.737 107.728 30.5042C107.477 30.2534 107.352 29.9131 107.352 29.4654V28.6236C107.352 28.1758 107.477 27.8176 107.728 27.5848C107.979 27.334 108.319 27.2266 108.749 27.2266C109.179 27.2266 109.501 27.3519 109.734 27.5848C109.967 27.8176 110.074 28.14 110.074 28.5519V28.5878H109.483V28.534C109.483 28.3191 109.429 28.14 109.304 27.9967C109.179 27.8534 108.999 27.7818 108.731 27.7818C108.48 27.7818 108.283 27.8534 108.14 28.0146C107.996 28.1758 107.925 28.3728 107.925 28.6415V29.5012C107.925 29.7699 107.996 29.9668 108.14 30.1281C108.283 30.2892 108.48 30.3609 108.731 30.3609C108.982 30.3609 109.179 30.2893 109.304 30.1459C109.429 30.0027 109.483 29.8236 109.483 29.6086V29.5191H110.074V29.5908C110.074 30.0027 109.967 30.3251 109.734 30.5579C109.501 30.7549 109.179 30.8624 108.749 30.8624Z" fill="#BCAAE7"/>
<path d="M113.242 30.8578C112.955 30.8578 112.722 30.8041 112.525 30.6966C112.328 30.5891 112.167 30.4459 112.06 30.2488C111.952 30.0518 111.898 29.819 111.898 29.5504V27.2578H112.508V29.5683C112.508 29.8011 112.579 29.9802 112.704 30.1056C112.83 30.2309 113.027 30.3026 113.26 30.3026C113.511 30.3026 113.689 30.2309 113.815 30.1056C113.94 29.9802 114.012 29.8011 114.012 29.5683V27.2578H114.621V29.5504C114.621 29.819 114.567 30.0518 114.459 30.2488C114.352 30.4459 114.191 30.5891 113.994 30.6966C113.761 30.8041 113.511 30.8578 113.242 30.8578Z" fill="#BCAAE7"/>
<path d="M116.516 30.7917V27.2812H118.02C118.235 27.2812 118.432 27.3171 118.593 27.3887C118.754 27.4604 118.88 27.5678 118.969 27.7111C119.059 27.8544 119.113 28.0156 119.113 28.2126V28.2664C119.113 28.4813 119.059 28.6604 118.951 28.7858C118.844 28.9111 118.718 29.0186 118.575 29.0723V29.144C118.7 29.144 118.808 29.1977 118.88 29.2872C118.951 29.3768 118.987 29.4842 118.987 29.6275V30.7917H118.378V29.7171C118.378 29.6275 118.36 29.5738 118.307 29.5201C118.253 29.4663 118.181 29.4484 118.092 29.4484H117.089V30.8096H116.516V30.7917ZM117.124 28.8932H117.966C118.145 28.8932 118.271 28.8395 118.378 28.7499C118.486 28.6604 118.522 28.535 118.522 28.3738V28.3201C118.522 28.1589 118.468 28.0335 118.378 27.9439C118.289 27.8544 118.145 27.8007 117.966 27.8007H117.124V28.8932Z" fill="#BCAAE7"/>
<path d="M120.961 30.7917V27.2812H121.57V30.7917H120.961Z" fill="#BCAAE7"/>
<path d="M124.346 30.7862V27.813H123.289V27.2578H125.993V27.813H124.937V30.7862H124.346Z" fill="#BCAAE7"/>
<path d="M128.624 30.7917V29.5559L127.406 27.2812H128.087L128.875 28.8395H128.964L129.752 27.2812H130.433L129.215 29.5559V30.7917H128.624Z" fill="#BCAAE7"/>
<path d="M32.9315 16.2969C30.3345 16.2969 27.8092 16.6551 26.3047 16.9237V18.3566C26.3047 18.3566 27.2539 18.1775 27.7017 18.1058C29.1704 17.8909 31.033 17.6939 32.9136 17.6939C34.5256 17.6939 36.1374 17.8372 37.4809 18.0163V16.6014C36.1734 16.4402 34.5614 16.2969 32.9315 16.2969ZM32.9315 29.1387C31.2838 28.476 29.9942 27.473 29.0808 26.1834C28.2032 24.9297 27.7196 23.4611 27.7196 22.0103V18.7864C27.2718 18.8581 26.3226 19.0372 26.3226 19.0372V22.0282C26.3226 23.7655 26.8957 25.5387 27.9345 27.0073C29.1166 28.673 30.7823 29.9088 32.9315 30.6611C33.5763 30.4282 34.1674 30.1775 34.7226 29.8551C34.6867 29.8372 33.63 29.4252 32.9315 29.1387ZM38.1613 16.7088V22.0103C38.1613 23.4611 37.6778 24.9476 36.8002 26.1834C36.0121 27.2939 34.9554 28.1894 33.63 28.8342C34.2211 29.0849 35.0092 29.3715 35.3136 29.4969C36.3703 28.8163 37.248 27.9745 37.9464 26.9894C38.9854 25.5029 39.5585 23.7297 39.5585 22.0103V16.9237C39.1643 16.8521 38.6808 16.7805 38.1613 16.7088Z" fill="#A181FA"/>
<path d="M32.4322 8.13084C32.4322 7.84424 32.665 7.61143 32.9516 7.61143C33.2382 7.61143 33.471 7.84424 33.471 8.13084C33.471 8.4174 33.2382 8.65021 32.9516 8.65021C32.665 8.65021 32.4322 8.4174 32.4322 8.13084ZM34.2232 7.4144C34.4382 7.43233 34.6352 7.27112 34.6531 7.0562C34.671 6.84128 34.5098 6.64425 34.2949 6.62636C34.08 6.60843 33.9009 6.76964 33.8829 6.98456C33.865 7.19948 34.0083 7.39651 34.2232 7.4144ZM31.2322 7.0562C31.2501 7.27112 31.4471 7.43233 31.6621 7.4144C31.877 7.39651 32.0382 7.19948 32.0203 6.98456C32.0023 6.76964 31.8053 6.60843 31.5904 6.62636C31.3755 6.64425 31.2143 6.84128 31.2322 7.0562ZM29.1188 7.86217C29.3337 7.80842 29.4591 7.5935 29.3874 7.37858C29.3337 7.16366 29.1188 7.03827 28.9038 7.10991C28.7068 7.16366 28.5814 7.37858 28.6352 7.57561C28.6889 7.7726 28.9038 7.91588 29.1188 7.86217ZM26.6829 8.73978C26.88 8.65021 26.9695 8.4174 26.88 8.22037C26.7904 8.02334 26.5576 7.93381 26.3606 8.02334C26.1635 8.11291 26.074 8.34576 26.1635 8.54275C26.2531 8.73978 26.4859 8.82935 26.6829 8.73978ZM24.4621 10.0293C24.6412 9.90395 24.677 9.6532 24.5516 9.492C24.4262 9.3129 24.1755 9.27708 24.0143 9.40247C23.8352 9.52785 23.7994 9.77859 23.9247 9.93977C24.0322 10.101 24.2829 10.1547 24.4621 10.0293ZM22.474 11.6771C22.6352 11.5159 22.6352 11.2831 22.474 11.1219C22.3128 10.9607 22.0799 10.9607 21.9188 11.1219C21.7576 11.2831 21.7576 11.5159 21.9188 11.6771C22.0799 11.8383 22.3307 11.8383 22.474 11.6771ZM20.1814 13.2174C20.0561 13.3965 20.0919 13.6472 20.271 13.7547C20.4501 13.8801 20.7009 13.8443 20.8083 13.6652C20.9158 13.4861 20.8979 13.2353 20.7187 13.1279C20.5576 12.9845 20.3068 13.0383 20.1814 13.2174ZM18.8202 15.5636C18.7307 15.7607 18.8202 15.9935 19.0173 16.0831C19.2143 16.1726 19.4471 16.0831 19.5367 15.886C19.6262 15.689 19.5367 15.4562 19.3397 15.3667C19.1426 15.2771 18.9098 15.3667 18.8202 15.5636ZM18.3725 17.8383C18.1755 17.7846 17.9606 17.9099 17.8889 18.1069C17.8352 18.3219 17.9606 18.5368 18.1576 18.5905C18.3725 18.6442 18.5874 18.5189 18.6411 18.3219C18.7128 18.1069 18.5874 17.892 18.3725 17.8383ZM17.4232 20.7935C17.4053 21.0084 17.5665 21.2055 17.7814 21.2234C17.9964 21.2413 18.1934 21.0801 18.2113 20.8652C18.2292 20.6502 18.068 20.4532 17.8531 20.4353C17.6382 20.4174 17.4412 20.5786 17.4232 20.7935ZM17.8531 23.8562C18.068 23.8383 18.2292 23.6413 18.2113 23.4263C18.1934 23.2114 17.9964 23.0502 17.7814 23.0681C17.5665 23.104 17.4053 23.2831 17.4232 23.498C17.4412 23.7129 17.6382 23.8741 17.8531 23.8562ZM18.3725 26.4532C18.5874 26.3995 18.7128 26.1845 18.6411 25.9696C18.5874 25.7547 18.3725 25.6293 18.1576 25.701C17.9426 25.7547 17.8173 25.9696 17.8889 26.1845C17.9606 26.3816 18.1755 26.5069 18.3725 26.4532ZM19.0173 28.2084C18.8202 28.298 18.7307 28.5308 18.8202 28.7278C18.9098 28.9249 19.1426 29.0144 19.3397 28.9249C19.5367 28.8353 19.6262 28.6025 19.5367 28.4055C19.4471 28.2084 19.2143 28.1189 19.0173 28.2084ZM20.271 30.5368C20.0919 30.6622 20.0561 30.9129 20.1814 31.0741C20.3068 31.2532 20.5576 31.289 20.7187 31.1637C20.8979 31.0383 20.9337 30.7875 20.8083 30.6263C20.7009 30.4472 20.4501 30.4114 20.271 30.5368ZM22.474 33.1517C22.6352 32.9905 22.6352 32.7577 22.474 32.5965C22.3128 32.4353 22.0799 32.4353 21.9188 32.5965C21.7576 32.7577 21.7576 32.9905 21.9188 33.1517C22.0799 33.3129 22.3307 33.3129 22.474 33.1517ZM24.5516 34.8174C24.677 34.6383 24.6412 34.3875 24.4621 34.2801C24.2829 34.1547 24.0322 34.1905 23.9247 34.3696C23.7994 34.5487 23.8352 34.7995 24.0143 34.9069C24.1934 35.0323 24.4262 34.9786 24.5516 34.8174ZM26.6829 35.5517C26.4859 35.4622 26.2531 35.5517 26.1635 35.7487C26.074 35.9457 26.1635 36.1788 26.3606 36.268C26.5576 36.3577 26.7904 36.268 26.88 36.0711C26.9695 35.8741 26.88 35.6413 26.6829 35.5517ZM29.1188 36.4293C28.9038 36.3757 28.6889 36.501 28.6352 36.6979C28.5814 36.9128 28.7068 37.1277 28.9038 37.1817C29.1188 37.2354 29.3337 37.1101 29.3874 36.9128C29.4411 36.6979 29.3158 36.483 29.1188 36.4293ZM31.6441 36.8772C31.4292 36.8592 31.2322 37.0204 31.2143 37.2354C31.1964 37.4503 31.3576 37.6472 31.5725 37.6652C31.7874 37.6832 31.9844 37.5219 32.0023 37.307C32.0203 37.0921 31.877 36.8952 31.6441 36.8772ZM34.6531 37.2354C34.6352 37.0204 34.4382 36.8592 34.2232 36.8772C34.0083 36.8952 33.8471 37.0921 33.865 37.307C33.8829 37.5219 34.08 37.6832 34.2949 37.6652C34.5098 37.6472 34.671 37.4503 34.6531 37.2354ZM36.7667 36.4293C36.5518 36.483 36.4261 36.6979 36.4978 36.9128C36.5694 37.1277 36.7667 37.2534 36.9816 37.1817C37.1965 37.1277 37.3218 36.9128 37.2502 36.6979C37.1965 36.501 36.9816 36.3757 36.7667 36.4293ZM39.2024 35.5517C39.0052 35.6413 38.9159 35.8741 39.0052 36.0711C39.0948 36.268 39.3277 36.3577 39.5246 36.268C39.7219 36.1788 39.8112 35.9457 39.7219 35.7487C39.6143 35.5517 39.3814 35.4622 39.2024 35.5517ZM41.4233 34.2622C41.244 34.3875 41.2084 34.6383 41.3336 34.7995C41.4589 34.9786 41.7098 35.0144 41.8711 34.889C42.05 34.7637 42.086 34.5129 41.9604 34.3517C41.8531 34.1905 41.6022 34.1368 41.4233 34.2622ZM43.4112 32.6144C43.2503 32.7756 43.2503 33.0084 43.4112 33.1696C43.5725 33.3308 43.8054 33.3308 43.9667 33.1696C44.1276 33.0084 44.1276 32.7756 43.9667 32.6144C43.8054 32.4532 43.5545 32.4532 43.4112 32.6144ZM45.7037 31.0741C45.8293 30.895 45.7933 30.6443 45.6144 30.5368C45.4351 30.4114 45.1846 30.4472 45.0769 30.6263C44.9516 30.8054 44.9873 31.0562 45.1666 31.1637C45.3278 31.3069 45.5784 31.2532 45.7037 31.0741ZM47.0652 28.7278C47.1545 28.5308 47.0652 28.298 46.8679 28.2084C46.671 28.1189 46.4381 28.2084 46.3484 28.4055C46.2592 28.6025 46.3484 28.8353 46.5457 28.9249C46.7426 29.0144 46.9756 28.9249 47.0652 28.7278ZM47.5127 26.4532C47.7276 26.5069 47.9425 26.3816 47.9965 26.1845C48.0502 25.9696 47.9249 25.7547 47.7276 25.701C47.5127 25.6472 47.2978 25.7726 47.2441 25.9696C47.1725 26.1845 47.2978 26.3995 47.5127 26.4532ZM48.462 23.498C48.48 23.2831 48.3187 23.086 48.1038 23.0681C47.8889 23.0502 47.692 23.2114 47.674 23.4263C47.656 23.6413 47.8172 23.8383 48.0322 23.8562C48.2471 23.8741 48.444 23.7129 48.462 23.498ZM48.0322 20.4353C47.8172 20.4532 47.656 20.6502 47.674 20.8652C47.692 21.0801 47.8889 21.2413 48.1038 21.2234C48.3187 21.2055 48.48 21.0084 48.462 20.7935C48.444 20.5786 48.2471 20.4174 48.0322 20.4353ZM47.71 18.5905C47.9249 18.5368 48.0502 18.3219 47.9785 18.1069C47.9249 17.892 47.71 17.7666 47.495 17.8383C47.2801 17.892 47.1545 18.1069 47.2261 18.3219C47.2801 18.5189 47.495 18.6442 47.71 18.5905ZM46.8679 16.0831C47.0652 15.9935 47.1545 15.7607 47.0652 15.5636C46.9756 15.3667 46.7426 15.2771 46.5457 15.3667C46.3484 15.4562 46.2592 15.689 46.3484 15.886C46.4381 16.0831 46.671 16.1726 46.8679 16.0831ZM45.6144 13.7547C45.7933 13.6293 45.8293 13.3786 45.7037 13.2174C45.5784 13.0562 45.3278 13.0025 45.1666 13.1279C44.9873 13.2532 44.9516 13.5039 45.0769 13.6652C45.1846 13.8443 45.4351 13.8801 45.6144 13.7547ZM43.4112 11.1398C43.2503 11.301 43.2503 11.5338 43.4112 11.695C43.5725 11.8562 43.8054 11.8562 43.9667 11.695C44.1276 11.5338 44.1276 11.301 43.9667 11.1398C43.8054 10.9786 43.5545 10.9786 43.4112 11.1398ZM41.3336 9.4741C41.2084 9.6532 41.244 9.90395 41.4233 10.0114C41.6022 10.1368 41.8531 10.101 41.9604 9.92187C42.086 9.74277 42.05 9.49203 41.8711 9.38454C41.6918 9.25918 41.4589 9.3129 41.3336 9.4741ZM39.2024 8.73978C39.3994 8.82935 39.6323 8.73978 39.7219 8.54275C39.8112 8.34576 39.7219 8.11291 39.5246 8.02334C39.3277 7.93381 39.0948 8.02334 39.0052 8.22037C38.9159 8.4174 39.0052 8.65021 39.2024 8.73978ZM36.7667 7.86217C36.9816 7.91588 37.1965 7.79053 37.2502 7.5935C37.3038 7.37858 37.1785 7.16366 36.9816 7.10991C36.7667 7.0562 36.5518 7.18155 36.4978 7.37858C36.4441 7.5935 36.5694 7.79053 36.7667 7.86217ZM35.28 8.84724C35.5665 8.90099 35.8173 8.70396 35.871 8.43529C35.9246 8.14873 35.7277 7.89799 35.4591 7.84424C35.1725 7.79053 34.9218 7.98752 34.868 8.25619C34.8143 8.54275 35.0113 8.79353 35.28 8.84724ZM37.2502 8.81142C37.1605 9.08009 37.2858 9.36664 37.5547 9.4741C37.8233 9.56367 38.1098 9.43829 38.2171 9.16962C38.3068 8.90099 38.1815 8.61439 37.9129 8.50693C37.644 8.39947 37.3574 8.54275 37.2502 8.81142ZM39.507 9.76067C39.3634 10.0114 39.453 10.3159 39.6859 10.4592C39.9368 10.6025 40.241 10.5129 40.3843 10.2801C40.5276 10.0293 40.4383 9.72484 40.2054 9.58157C39.9545 9.42036 39.6503 9.50993 39.507 9.76067ZM41.5486 11.086C41.3696 11.301 41.3873 11.6233 41.6202 11.8025C41.8531 11.9816 42.1577 11.9636 42.3366 11.7308C42.5159 11.5159 42.4979 11.1935 42.265 11.0144C42.068 10.8353 41.7455 10.8711 41.5486 11.086ZM43.3396 12.7517C43.1246 12.9308 43.089 13.2532 43.2679 13.4681C43.4472 13.683 43.7694 13.7189 43.9843 13.5398C44.1992 13.3607 44.2352 13.0383 44.056 12.8234C43.895 12.5905 43.5725 12.5726 43.3396 12.7517ZM45.3278 15.5816C45.5784 15.4383 45.65 15.1338 45.5068 14.8831C45.3635 14.6323 45.0589 14.5607 44.8084 14.704C44.5574 14.8472 44.4858 15.1517 44.6291 15.4025C44.7724 15.6353 45.0949 15.7249 45.3278 15.5816ZM45.632 17.5338C45.7217 17.8025 46.0262 17.9278 46.2948 17.8383C46.5634 17.7487 46.689 17.4443 46.5994 17.1756C46.5097 16.907 46.2052 16.7816 45.9366 16.8711C45.668 16.9607 45.5248 17.2652 45.632 17.5338ZM46.653 19.1995C46.3664 19.2532 46.1875 19.5218 46.2412 19.7905C46.2948 20.0771 46.5634 20.2562 46.8323 20.2025C47.1188 20.1487 47.2978 19.8801 47.2441 19.6114C47.1905 19.3427 46.9396 19.1636 46.653 19.1995ZM46.9576 21.6353C46.671 21.6353 46.4381 21.8681 46.4381 22.1547C46.4381 22.4413 46.671 22.6741 46.9576 22.6741C47.2441 22.6741 47.477 22.4413 47.477 22.1547C47.477 21.8681 47.2441 21.6353 46.9576 21.6353ZM46.653 25.0741C46.9396 25.1278 47.1905 24.9308 47.2441 24.6622C47.2978 24.3756 47.1008 24.1248 46.8323 24.0711C46.5457 24.0174 46.2948 24.2144 46.2412 24.483C46.1875 24.7696 46.3664 25.0383 46.653 25.0741ZM46.5994 27.1159C46.689 26.8472 46.5634 26.5607 46.2948 26.4532C46.0262 26.3636 45.7397 26.489 45.632 26.7577C45.5428 27.0263 45.668 27.3129 45.9366 27.4204C46.2052 27.5279 46.4917 27.3845 46.5994 27.1159ZM45.5248 29.4084C45.668 29.1577 45.5784 28.8532 45.3455 28.7099C45.0949 28.5666 44.7904 28.6562 44.6471 28.889C44.5038 29.1398 44.5934 29.4442 44.8264 29.5875C45.0589 29.7308 45.3815 29.6592 45.5248 29.4084ZM44.0023 30.7517C43.7874 30.5726 43.4652 30.5905 43.2859 30.8234C43.1066 31.0383 43.1246 31.3607 43.3576 31.5398C43.5725 31.7189 43.895 31.701 44.074 31.4681C44.2532 31.2711 44.2172 30.9487 44.0023 30.7517ZM41.6202 32.489C41.4053 32.6681 41.3696 32.9905 41.5486 33.2054C41.7278 33.4204 42.05 33.4562 42.265 33.2771C42.4799 33.098 42.5159 32.7756 42.3366 32.5607C42.1577 32.3278 41.8351 32.3099 41.6202 32.489ZM40.3843 34.0293C40.241 33.7786 39.9368 33.7069 39.6859 33.8502C39.4354 33.9935 39.3634 34.298 39.507 34.5487C39.6503 34.7995 39.9545 34.8711 40.2054 34.7278C40.456 34.5845 40.5276 34.2622 40.3843 34.0293ZM38.2171 35.1398C38.1278 34.8711 37.8233 34.7457 37.5547 34.8353C37.2858 34.9248 37.1605 35.2293 37.2502 35.498C37.3398 35.7666 37.644 35.892 37.9129 35.8024C38.1815 35.7129 38.3068 35.4084 38.2171 35.1398ZM35.871 35.8562C35.8173 35.5696 35.5486 35.3905 35.28 35.4443C35.0113 35.498 34.8143 35.7666 34.868 36.0351C34.9218 36.322 35.1904 36.501 35.4591 36.4473C35.7456 36.3937 35.9246 36.1428 35.871 35.8562ZM32.9337 35.6413C32.6471 35.6413 32.4143 35.8741 32.4143 36.1608C32.4143 36.4473 32.6471 36.6802 32.9337 36.6802C33.2202 36.6802 33.4531 36.4473 33.4531 36.1608C33.4531 35.8741 33.2202 35.6413 32.9337 35.6413ZM30.6053 35.4443C30.3188 35.3905 30.068 35.5875 30.0143 35.8562C29.9606 36.1428 30.1576 36.3937 30.4262 36.4473C30.6949 36.501 30.9636 36.304 31.0173 36.0351C31.071 35.7487 30.874 35.498 30.6053 35.4443ZM28.6352 35.4801C28.7247 35.2114 28.5994 34.9248 28.3307 34.8174C28.0621 34.7278 27.7755 34.8532 27.668 35.1219C27.5785 35.3905 27.7038 35.6771 27.9725 35.7846C28.2412 35.892 28.5277 35.7487 28.6352 35.4801ZM26.3784 34.5308C26.5218 34.2801 26.4322 33.9756 26.1993 33.8323C25.9486 33.689 25.6441 33.7786 25.5008 34.0114C25.3576 34.2622 25.4471 34.5666 25.6799 34.7099C25.9307 34.8711 26.2352 34.7816 26.3784 34.5308ZM24.3367 33.2054C24.5158 32.9905 24.4979 32.6681 24.265 32.489C24.0501 32.3099 23.7277 32.3278 23.5486 32.5607C23.3695 32.7756 23.3874 33.098 23.6202 33.2771C23.8173 33.4562 24.1396 33.4204 24.3367 33.2054ZM22.5456 31.5398C22.7606 31.3607 22.7964 31.0383 22.6173 30.8234C22.4382 30.6084 22.1158 30.5726 21.9008 30.7517C21.6859 30.9308 21.6501 31.2532 21.8292 31.4681C21.9904 31.701 22.3128 31.7189 22.5456 31.5398ZM20.5576 28.7099C20.3068 28.8532 20.2352 29.1577 20.3785 29.4084C20.5218 29.6592 20.8262 29.7308 21.077 29.5875C21.3277 29.4442 21.3994 29.1398 21.2561 28.889C21.1128 28.6562 20.7904 28.5666 20.5576 28.7099ZM20.2531 26.7577C20.1636 26.489 19.8591 26.3636 19.5904 26.4532C19.3218 26.5427 19.1964 26.8472 19.2859 27.1159C19.3755 27.3845 19.68 27.5099 19.9486 27.4204C20.2173 27.3308 20.3605 27.0263 20.2531 26.7577ZM19.2322 25.0741C19.5188 25.0204 19.6979 24.7517 19.6441 24.483C19.5904 24.2144 19.3218 24.0174 19.0531 24.0711C18.7665 24.1248 18.5874 24.3935 18.6411 24.6622C18.6949 24.9308 18.9456 25.1278 19.2322 25.0741ZM18.4262 22.1368C18.4262 22.4234 18.6591 22.6562 18.9456 22.6562C19.2322 22.6562 19.465 22.4234 19.465 22.1368C19.465 21.8502 19.2322 21.6174 18.9456 21.6174C18.6411 21.6353 18.4262 21.8681 18.4262 22.1368ZM19.2322 19.1995C18.9456 19.1458 18.6949 19.3427 18.6411 19.6114C18.5874 19.8801 18.7844 20.1487 19.0531 20.2025C19.3397 20.2562 19.5904 20.0592 19.6441 19.7905C19.6979 19.5218 19.5188 19.2532 19.2322 19.1995ZM19.2859 17.1756C19.1964 17.4443 19.3218 17.7308 19.5904 17.8383C19.8591 17.9457 20.1456 17.8025 20.2531 17.5338C20.3427 17.2652 20.2173 16.9786 19.9486 16.8711C19.68 16.7816 19.3934 16.907 19.2859 17.1756ZM20.3605 14.8831C20.2173 15.1338 20.3068 15.4383 20.5396 15.5816C20.7904 15.7249 21.0949 15.6353 21.2382 15.4025C21.3814 15.1517 21.2919 14.8472 21.0591 14.704C20.8262 14.5607 20.5038 14.6323 20.3605 14.8831ZM21.8829 13.5398C22.0979 13.7189 22.4202 13.701 22.5993 13.4681C22.7784 13.2532 22.7606 12.9308 22.5277 12.7517C22.3128 12.5726 21.9904 12.5905 21.8113 12.8234C21.6322 13.0204 21.668 13.3428 21.8829 13.5398ZM24.265 11.8025C24.48 11.6233 24.5158 11.301 24.3367 11.086C24.1576 10.8711 23.8352 10.8353 23.6202 11.0144C23.4053 11.1935 23.3695 11.5159 23.5486 11.7308C23.7277 11.9636 24.0501 11.9816 24.265 11.8025ZM25.5008 10.2622C25.6441 10.5129 25.9486 10.5846 26.1993 10.4413C26.4501 10.298 26.5218 9.99351 26.3784 9.74277C26.2352 9.492 25.9307 9.42036 25.6799 9.56367C25.4292 9.70695 25.3576 10.0293 25.5008 10.2622ZM27.668 9.15172C27.7576 9.42036 28.0621 9.54575 28.3307 9.45618C28.5994 9.36665 28.7247 9.06216 28.6352 8.79353C28.5456 8.52486 28.2412 8.39947 27.9725 8.48904C27.7038 8.5965 27.5785 8.88306 27.668 9.15172ZM29.9964 8.43529C30.0501 8.72185 30.3188 8.90099 30.5874 8.84724C30.874 8.79353 31.0531 8.52486 30.9994 8.25619C30.9456 7.96963 30.677 7.79053 30.4083 7.84424C30.1397 7.89799 29.9606 8.14873 29.9964 8.43529ZM31.7695 8.81142C31.4471 8.84724 31.1964 9.1338 31.2322 9.45618C31.268 9.77859 31.5546 10.0293 31.877 9.99351C32.1994 9.95769 32.4501 9.67113 32.4143 9.34872C32.3964 9.02634 32.1098 8.79353 31.7695 8.81142ZM34.0083 10.0114C34.3307 10.0472 34.6352 9.79648 34.6531 9.4741C34.6889 9.15172 34.4382 8.84724 34.1158 8.82934C33.7934 8.79352 33.4889 9.04427 33.471 9.36664C33.4352 9.68902 33.668 9.99351 34.0083 10.0114ZM35.674 9.65321C35.5844 9.97559 35.7814 10.298 36.1039 10.3875C36.4261 10.4771 36.7487 10.2801 36.8383 9.95769C36.9276 9.63531 36.7307 9.3129 36.4085 9.22337C36.0859 9.1338 35.7635 9.33083 35.674 9.65321ZM38.5933 10.0293C38.2888 9.88605 37.9306 10.0114 37.7873 10.3159C37.644 10.6204 37.7696 10.9786 38.0738 11.1219C38.3784 11.2651 38.7366 11.1398 38.8799 10.8353C39.0232 10.5308 38.8979 10.1547 38.5933 10.0293ZM39.9188 12.1786C40.1874 12.3756 40.5636 12.304 40.7605 12.0353C40.9574 11.7667 40.8858 11.3905 40.6172 11.1935C40.3487 10.9965 39.9725 11.0681 39.7756 11.3368C39.5963 11.6054 39.6503 11.9816 39.9188 12.1786ZM41.5486 12.6801C41.3156 12.9129 41.3156 13.289 41.5486 13.5219C41.7815 13.7547 42.1577 13.7547 42.3902 13.5219C42.6232 13.289 42.6232 12.9129 42.3902 12.6801C42.1577 12.4472 41.7815 12.4472 41.5486 12.6801ZM43.7518 15.3129C44.0203 15.1159 44.092 14.7398 43.895 14.4711C43.6978 14.2025 43.3219 14.1308 43.053 14.3278C42.7844 14.5249 42.7128 14.901 42.9097 15.1696C43.107 15.4383 43.4828 15.492 43.7518 15.3129ZM43.9843 16.9965C44.1276 17.301 44.4858 17.4264 44.7904 17.283C45.0949 17.1398 45.2202 16.7816 45.0769 16.4771C44.9336 16.1726 44.5754 16.0472 44.2709 16.1905C43.9667 16.3338 43.841 16.692 43.9843 16.9965ZM45.1306 18.2502C44.8084 18.3398 44.6291 18.6622 44.7007 18.9845C44.7904 19.3069 45.1129 19.486 45.4351 19.4144C45.7577 19.3249 45.9366 19.0025 45.865 18.6801C45.7933 18.3577 45.4531 18.1786 45.1306 18.2502ZM45.6144 20.4353C45.2918 20.4711 45.0413 20.7577 45.0769 21.0801C45.1129 21.4025 45.3995 21.6532 45.7217 21.6174C46.0442 21.5816 46.2948 21.295 46.2592 20.9726C46.2412 20.6502 45.9546 20.3995 45.6144 20.4353ZM46.2768 23.3189C46.3128 22.9965 46.0619 22.692 45.7397 22.6741C45.4171 22.6383 45.1129 22.889 45.0949 23.2114C45.0769 23.5338 45.3098 23.8383 45.632 23.8562C45.9546 23.892 46.2412 23.6413 46.2768 23.3189ZM45.1306 26.0234C45.4531 26.1129 45.7753 25.9159 45.865 25.5935C45.9546 25.2711 45.7577 24.9487 45.4351 24.8592C45.1129 24.7696 44.7904 24.9666 44.7007 25.289C44.6114 25.6114 44.8084 25.9517 45.1306 26.0234ZM45.0589 27.7965C45.2022 27.492 45.0769 27.1338 44.7724 26.9905C44.4682 26.8472 44.11 26.9726 43.9667 27.2771C43.8234 27.5816 43.9487 27.9398 44.2532 28.083C44.5754 28.2264 44.9336 28.101 45.0589 27.7965ZM43.071 29.9636C43.3396 30.1607 43.7158 30.089 43.9127 29.8204C44.11 29.5517 44.0383 29.1756 43.7694 28.9786C43.5008 28.7815 43.1246 28.8532 42.9277 29.1219C42.7308 29.4084 42.7844 29.7845 43.071 29.9636ZM41.5486 30.7517C41.3156 30.9845 41.3156 31.3607 41.5486 31.5935C41.7815 31.8264 42.1577 31.8264 42.3902 31.5935C42.6232 31.3607 42.6232 30.9845 42.3902 30.7517C42.1753 30.5189 41.7815 30.5189 41.5486 30.7517ZM39.9188 32.1129C39.6503 32.3099 39.5786 32.686 39.7756 32.9547C39.9725 33.2234 40.3487 33.295 40.6172 33.098C40.8858 32.901 40.9574 32.5249 40.7605 32.2562C40.5816 31.9875 40.2054 31.9338 39.9188 32.1129ZM38.0918 33.1875C37.7873 33.3308 37.662 33.689 37.8053 33.9935C37.9486 34.298 38.3068 34.4234 38.6113 34.2801C38.9159 34.1368 39.0412 33.7786 38.8979 33.4741C38.7546 33.1696 38.3964 33.0442 38.0918 33.1875ZM36.8203 34.3338C36.7307 34.0114 36.4085 33.8323 36.0859 33.904C35.7635 33.9935 35.5844 34.3159 35.6561 34.6383C35.7456 34.9607 36.0679 35.1398 36.3905 35.0681C36.7307 34.9786 36.91 34.6562 36.8203 34.3338ZM34.1158 35.4801C34.4382 35.4442 34.6889 35.1577 34.6531 34.8353C34.6173 34.5129 34.3307 34.2622 34.0083 34.298C33.6859 34.3338 33.4352 34.6204 33.471 34.9428C33.4889 35.2651 33.7755 35.498 34.1158 35.4801ZM31.877 34.2801C31.5546 34.2443 31.2501 34.495 31.2322 34.8174C31.1964 35.1398 31.4471 35.4442 31.7695 35.4622C32.0919 35.498 32.3964 35.2472 32.4143 34.9248C32.4501 34.6025 32.2173 34.298 31.877 34.2801ZM30.2113 34.6383C30.3009 34.3159 30.1038 33.9935 29.7815 33.904C29.4591 33.8144 29.1367 34.0114 29.0471 34.3338C28.9576 34.6562 29.1546 34.9786 29.477 35.0681C29.7993 35.1577 30.1218 34.9607 30.2113 34.6383ZM27.2919 34.2622C27.5964 34.4054 27.9546 34.2801 28.0979 33.9756C28.2412 33.6711 28.1158 33.3129 27.8113 33.1696C27.5068 33.0263 27.1486 33.1517 27.0053 33.4562C26.862 33.7786 26.9874 34.1368 27.2919 34.2622ZM25.9665 32.1129C25.6979 31.9159 25.3217 31.9875 25.1247 32.2562C24.9277 32.5249 24.9994 32.901 25.268 33.098C25.5367 33.295 25.9128 33.2234 26.1098 32.9547C26.2889 32.686 26.2352 32.3099 25.9665 32.1129ZM24.3367 31.6114C24.5695 31.3786 24.5695 31.0025 24.3367 30.7696C24.1038 30.5368 23.7277 30.5368 23.4949 30.7696C23.262 31.0025 23.262 31.3786 23.4949 31.6114C23.7098 31.8442 24.1038 31.8442 24.3367 31.6114ZM22.1337 28.9786C21.865 29.1756 21.7934 29.5517 21.9904 29.8204C22.1874 30.089 22.5635 30.1607 22.8322 29.9636C23.1009 29.7667 23.1725 29.3905 22.9755 29.1219C22.7784 28.8532 22.4024 28.7995 22.1337 28.9786ZM21.9008 27.295C21.7576 26.9905 21.3994 26.8652 21.0949 27.0084C20.7904 27.1517 20.665 27.5099 20.8083 27.8144C20.9516 28.1189 21.3098 28.2443 21.6143 28.101C21.9188 27.9577 22.0441 27.5995 21.9008 27.295ZM20.7546 26.0234C21.077 25.9338 21.2561 25.6114 21.1844 25.289C21.1128 24.9666 20.7725 24.7875 20.4501 24.8592C20.1277 24.9487 19.9486 25.2711 20.0202 25.5935C20.1098 25.9338 20.4322 26.1129 20.7546 26.0234ZM20.271 23.8562C20.5934 23.8204 20.8441 23.5338 20.8083 23.2114C20.7725 22.889 20.4859 22.6383 20.1636 22.6741C19.8411 22.7099 19.5904 22.9965 19.6262 23.3189C19.6441 23.6413 19.9307 23.892 20.271 23.8562ZM19.6083 20.9726C19.5725 21.295 19.8232 21.5995 20.1456 21.6174C20.468 21.6532 20.7725 21.4025 20.7904 21.0801C20.8083 20.7577 20.5755 20.4532 20.2531 20.4353C19.9307 20.3995 19.6441 20.6502 19.6083 20.9726ZM20.7546 18.2502C20.4322 18.1607 20.1098 18.3577 20.0202 18.6801C19.9307 19.0025 20.1277 19.3249 20.4501 19.4144C20.7725 19.504 21.0949 19.3069 21.1844 18.9845C21.274 18.6801 21.077 18.3398 20.7546 18.2502ZM20.8262 16.495C20.6829 16.7995 20.8083 17.1577 21.1128 17.301C21.4173 17.4443 21.7755 17.3189 21.9188 17.0144C22.062 16.7099 21.9367 16.3517 21.6322 16.2084C21.3098 16.0652 20.9516 16.1905 20.8262 16.495ZM22.8143 14.3278C22.5456 14.1308 22.1695 14.2025 21.9725 14.4711C21.7755 14.7398 21.8471 15.1159 22.1158 15.3129C22.3844 15.5099 22.7606 15.4383 22.9576 15.1696C23.1546 14.8831 23.0829 14.5069 22.8143 14.3278ZM24.3367 13.5398C24.5695 13.307 24.5695 12.9308 24.3367 12.698C24.1038 12.4652 23.7277 12.4652 23.4949 12.698C23.262 12.9308 23.262 13.307 23.4949 13.5398C23.7098 13.7726 24.1038 13.7726 24.3367 13.5398ZM25.9665 12.1786C26.2352 11.9816 26.3068 11.6054 26.1098 11.3368C25.9128 11.0681 25.5367 10.9965 25.268 11.1935C24.9994 11.3905 24.9277 11.7667 25.1247 12.0353C25.3038 12.286 25.6799 12.3577 25.9665 12.1786ZM27.7934 11.104C28.0979 10.9607 28.2232 10.6025 28.08 10.298C27.9367 9.99351 27.5785 9.86813 27.274 10.0114C26.9695 10.1547 26.8441 10.5129 26.9874 10.8174C27.1307 11.1219 27.4889 11.2472 27.7934 11.104ZM29.0471 9.95769C29.1367 10.2801 29.4591 10.4592 29.7815 10.3875C30.1038 10.298 30.2829 9.97559 30.2113 9.65321C30.1218 9.33083 29.7993 9.15173 29.477 9.22337C29.1546 9.3129 28.9755 9.63531 29.0471 9.95769ZM30.8202 10.1547C30.4441 10.2264 30.1755 10.5846 30.2471 10.9607C30.3188 11.3368 30.677 11.6054 31.0531 11.5338C31.4292 11.4622 31.6979 11.104 31.6262 10.7278C31.5725 10.3338 31.2143 10.083 30.8202 10.1547ZM28.7785 10.7099C28.4203 10.8353 28.2232 11.2472 28.3665 11.6054C28.4919 11.9636 28.9038 12.1607 29.262 12.0174C29.6202 11.892 29.8173 11.4801 29.674 11.1219C29.5486 10.7637 29.1367 10.5666 28.7785 10.7099ZM27.5605 12.8234C27.9009 12.6263 28.0083 12.1965 27.8113 11.8562C27.6143 11.5159 27.1844 11.4084 26.8441 11.6054C26.5038 11.8025 26.3964 12.2323 26.5934 12.5726C26.7904 12.895 27.2202 13.0025 27.5605 12.8234ZM25.0352 13.8084C25.2859 14.1129 25.7337 14.1487 26.0202 13.898C26.3247 13.6472 26.3606 13.1995 26.1098 12.9129C25.8591 12.6084 25.4113 12.5726 25.1247 12.8234C24.8203 13.0741 24.7844 13.5039 25.0352 13.8084ZM22.4024 16.0652C22.2053 16.4054 22.3307 16.8353 22.6531 17.0323C22.9934 17.2293 23.4232 17.1039 23.6202 16.7816C23.8173 16.4413 23.6919 16.0114 23.3695 15.8144C23.0113 15.5995 22.5993 15.7249 22.4024 16.0652ZM21.5068 17.9816C21.3814 18.3398 21.5606 18.7517 21.9188 18.8771C22.277 19.0025 22.6889 18.8233 22.8143 18.4651C22.9397 18.1069 22.7606 17.695 22.4024 17.5696C22.0262 17.4264 21.6322 17.6234 21.5068 17.9816ZM20.9516 20.0234C20.88 20.3995 21.1307 20.7756 21.5247 20.8293C21.9008 20.901 22.277 20.6502 22.3307 20.2562C22.4024 19.8801 22.1516 19.504 21.7576 19.4502C21.3635 19.3965 21.0232 19.6472 20.9516 20.0234ZM21.471 21.4383C21.077 21.4383 20.7725 21.7607 20.7725 22.1368C20.7725 22.5129 21.0949 22.8353 21.471 22.8353C21.865 22.8353 22.1695 22.5129 22.1695 22.1368C22.1695 21.7607 21.8471 21.4383 21.471 21.4383ZM21.7576 24.8234C22.1337 24.7517 22.4024 24.3935 22.3307 24.0174C22.2591 23.6413 21.9008 23.3726 21.5247 23.4443C21.1486 23.5159 20.88 23.8741 20.9516 24.2502C21.0232 24.6443 21.3814 24.895 21.7576 24.8234ZM22.4024 26.7218C22.7606 26.5965 22.9576 26.1845 22.8143 25.8263C22.6889 25.4681 22.277 25.2711 21.9188 25.4144C21.5606 25.5398 21.3635 25.9517 21.5068 26.3099C21.6322 26.6681 22.0262 26.8652 22.4024 26.7218ZM23.3516 28.495C23.6919 28.298 23.7994 27.8681 23.6023 27.5279C23.4053 27.1875 22.9755 27.0801 22.6352 27.2771C22.2949 27.4741 22.1874 27.9039 22.3844 28.2443C22.5993 28.5666 23.0113 28.692 23.3516 28.495ZM24.6053 30.0532C24.9098 29.8025 24.9456 29.3547 24.6949 29.0681C24.4441 28.7637 23.9964 28.7278 23.7098 28.9786C23.4053 29.2293 23.3695 29.6771 23.6202 29.9636C23.871 30.2681 24.3009 30.304 24.6053 30.0532ZM26.0202 30.3935C25.7158 30.1427 25.2859 30.1786 25.0352 30.4831C24.7844 30.7875 24.8203 31.2174 25.1247 31.4681C25.4292 31.7189 25.8591 31.683 26.1098 31.3786C26.3606 31.092 26.3068 30.6443 26.0202 30.3935ZM27.5605 31.4681C27.2202 31.2711 26.7904 31.3965 26.5934 31.7189C26.3964 32.0413 26.5218 32.489 26.8441 32.686C27.1844 32.8831 27.6143 32.7577 27.8113 32.4353C28.0083 32.1129 27.8829 31.6651 27.5605 31.4681ZM28.7785 33.5816C29.1367 33.7069 29.5486 33.5278 29.674 33.1696C29.7993 32.8114 29.6202 32.3995 29.262 32.2741C28.9038 32.1487 28.4919 32.3278 28.3665 32.686C28.2232 33.0442 28.4203 33.4562 28.7785 33.5816ZM30.8202 34.1368C31.1964 34.2084 31.5725 33.9577 31.6262 33.5636C31.6979 33.1875 31.4471 32.8114 31.0531 32.7577C30.677 32.686 30.3009 32.9368 30.2471 33.3308C30.1934 33.7069 30.4441 34.0652 30.8202 34.1368ZM32.9337 34.3159C33.3277 34.3159 33.6322 33.9935 33.6322 33.6174C33.6322 33.2233 33.3098 32.9189 32.9337 32.9189C32.5397 32.9189 32.2352 33.2413 32.2352 33.6174C32.2352 34.0114 32.5576 34.3159 32.9337 34.3159ZM35.065 34.1368C35.4412 34.0652 35.7098 33.7069 35.6382 33.3308C35.5665 32.9547 35.2083 32.686 34.8322 32.7577C34.4561 32.8293 34.1874 33.1875 34.2591 33.5636C34.3128 33.9577 34.671 34.2084 35.065 34.1368ZM37.1069 33.5816C37.4651 33.4562 37.662 33.0442 37.5187 32.686C37.3934 32.3278 36.9816 32.1308 36.6234 32.2741C36.2652 32.3995 36.0679 32.8114 36.2112 33.1696C36.3368 33.5278 36.7487 33.7249 37.1069 33.5816ZM38.3248 31.4681C37.9846 31.6651 37.8769 32.095 38.0738 32.4353C38.2711 32.7756 38.701 32.8831 39.0412 32.686C39.3814 32.489 39.489 32.0592 39.2917 31.7189C39.0948 31.3965 38.665 31.289 38.3248 31.4681ZM40.8502 30.4831C40.5992 30.1786 40.1518 30.1427 39.8652 30.3935C39.5606 30.6443 39.5246 31.092 39.7756 31.3786C40.0261 31.683 40.474 31.7189 40.7605 31.4681C41.0651 31.2174 41.1007 30.7875 40.8502 30.4831ZM41.28 30.0532C41.5846 30.304 42.0144 30.2681 42.265 29.9636C42.5159 29.6592 42.4799 29.2293 42.1753 28.9786C41.8711 28.7278 41.4413 28.7637 41.1904 29.0681C40.9398 29.3726 40.9934 29.8025 41.28 30.0532ZM43.4828 28.2264C43.6801 27.8861 43.5545 27.4562 43.2323 27.2592C42.8917 27.0622 42.4619 27.1875 42.265 27.5099C42.068 27.8502 42.1933 28.2801 42.5159 28.4771C42.8561 28.692 43.2859 28.5666 43.4828 28.2264ZM44.3785 26.3099C44.5038 25.9517 44.3249 25.5398 43.9667 25.4144C43.6085 25.289 43.1963 25.4681 43.071 25.8263C42.9457 26.1845 43.1246 26.5965 43.4828 26.7218C43.841 26.8652 44.2532 26.6681 44.3785 26.3099ZM44.9336 24.2681C45.0053 23.892 44.7547 23.5159 44.3605 23.4622C43.9667 23.4084 43.6085 23.6413 43.5545 24.0353C43.4828 24.4114 43.7338 24.7875 44.1276 24.8413C44.5038 24.895 44.862 24.6443 44.9336 24.2681ZM44.4142 21.4383C44.0203 21.4383 43.7158 21.7607 43.7158 22.1368C43.7158 22.5129 44.0383 22.8353 44.4142 22.8353C44.8084 22.8353 45.1129 22.5129 45.1129 22.1368C45.1129 21.7607 44.8084 21.4383 44.4142 21.4383ZM44.1276 19.4681C43.7518 19.5398 43.4828 19.898 43.5545 20.2741C43.6261 20.6502 43.9843 20.9189 44.3605 20.8472C44.7367 20.7756 45.0053 20.4174 44.9336 20.0413C44.862 19.6472 44.5038 19.3965 44.1276 19.4681ZM43.4828 17.5696C43.1246 17.695 42.9277 18.1069 43.071 18.4651C43.1963 18.8233 43.6085 19.0204 43.9667 18.8771C44.3249 18.7517 44.5218 18.3398 44.3785 17.9816C44.2532 17.6234 43.841 17.4264 43.4828 17.5696ZM42.5335 15.7965C42.1933 15.9935 42.086 16.4234 42.283 16.7637C42.4799 17.1039 42.9097 17.2114 43.2503 17.0144C43.5905 16.8174 43.6978 16.3875 43.5008 16.0472C43.2859 15.7249 42.8561 15.5995 42.5335 15.7965ZM41.7635 14.0413C41.3696 14.0413 41.0471 14.3637 41.0471 14.7577C41.0471 15.1517 41.3696 15.4741 41.7635 15.4741C42.1577 15.4741 42.4799 15.1517 42.4799 14.7577C42.4799 14.3637 42.1577 14.0413 41.7635 14.0413ZM39.8652 13.898C40.1694 14.1487 40.5992 14.1129 40.8502 13.8084C41.1007 13.5039 41.0651 13.0741 40.7605 12.8234C40.456 12.5726 40.0261 12.6084 39.7756 12.9129C39.5246 13.1995 39.5786 13.6472 39.8652 13.898ZM38.3248 12.8234C38.665 13.0204 39.0948 12.895 39.2917 12.5726C39.489 12.2323 39.3634 11.8025 39.0412 11.6054C38.701 11.4084 38.2711 11.5338 38.0738 11.8562C37.8769 12.1965 37.9846 12.6263 38.3248 12.8234ZM37.1069 10.7099C36.7487 10.5846 36.3368 10.7637 36.2112 11.1219C36.0859 11.4801 36.2652 11.892 36.6234 12.0174C36.9816 12.1427 37.3934 11.9636 37.5187 11.6054C37.644 11.2472 37.4651 10.8353 37.1069 10.7099ZM35.065 10.1547C34.6889 10.083 34.3128 10.3338 34.2591 10.7278C34.1874 11.104 34.4382 11.4801 34.8322 11.5338C35.2083 11.6054 35.5844 11.3547 35.6382 10.9607C35.6919 10.5846 35.4412 10.2264 35.065 10.1547ZM32.0023 11.4622C31.6083 11.498 31.3038 11.8562 31.3396 12.2502C31.3755 12.6443 31.7337 12.9487 32.1277 12.9129C32.5217 12.8771 32.8262 12.5189 32.7904 12.1249C32.7546 11.7129 32.4143 11.4263 32.0023 11.4622ZM29.6561 12.6801C29.7635 13.0741 30.1576 13.289 30.5516 13.1995C30.9456 13.092 31.1605 12.698 31.071 12.304C30.9636 11.9099 30.5695 11.695 30.1755 11.7845C29.7815 11.892 29.5486 12.286 29.6561 12.6801ZM28.0621 13.3786C28.2232 13.7368 28.671 13.898 29.0292 13.7368C29.3874 13.5756 29.5486 13.1279 29.3874 12.7696C29.2262 12.4114 28.7785 12.2502 28.4203 12.4114C28.0441 12.5905 27.8829 13.0204 28.0621 13.3786ZM23.9785 19.7368C24.0859 19.3427 23.8531 18.9487 23.4591 18.8413C23.065 18.7338 22.671 18.9667 22.5635 19.3607C22.4561 19.7547 22.6889 20.1487 23.0829 20.2562C23.477 20.3637 23.871 20.1308 23.9785 19.7368ZM23.0471 20.5428C22.6531 20.507 22.2949 20.8114 22.2591 21.2055C22.2233 21.5995 22.5277 21.9577 22.9218 21.9935C23.3158 22.0293 23.674 21.7249 23.7098 21.3308C23.7277 20.9368 23.4411 20.5786 23.0471 20.5428ZM23.0471 23.7487C23.4411 23.7129 23.7456 23.3547 23.7098 22.9607C23.674 22.5667 23.3158 22.2622 22.9218 22.298C22.5277 22.3338 22.2233 22.692 22.2591 23.086C22.2949 23.4801 22.6352 23.7666 23.0471 23.7487ZM23.1009 24.0353C22.7068 24.1428 22.4919 24.5368 22.5815 24.9308C22.6889 25.3249 23.0829 25.5398 23.477 25.4502C23.871 25.3428 24.0859 24.9487 23.9964 24.5547C23.871 24.1607 23.477 23.9279 23.1009 24.0353ZM23.2262 26.686C23.3874 27.0443 23.8352 27.2054 24.1934 27.0443C24.5516 26.8831 24.7128 26.4353 24.5516 26.0771C24.3904 25.7189 23.9427 25.5577 23.5844 25.7189C23.2083 25.8801 23.0471 26.3099 23.2262 26.686ZM25.3397 27.4741C25.1068 27.1517 24.6591 27.0622 24.3367 27.295C24.0143 27.5279 23.9247 27.9756 24.1576 28.298C24.3904 28.6204 24.8382 28.7099 25.1606 28.4771C25.5008 28.2443 25.5725 27.7965 25.3397 27.4741ZM26.3784 28.7099C26.0919 28.4234 25.6441 28.4234 25.3576 28.7099C25.071 28.9965 25.071 29.4442 25.3576 29.7308C25.6441 30.0174 26.0919 30.0174 26.3784 29.7308C26.665 29.4442 26.665 28.9965 26.3784 28.7099ZM40.5276 29.7308C40.8142 29.4442 40.8142 28.9965 40.5276 28.7099C40.241 28.4234 39.7936 28.4234 39.507 28.7099C39.2201 28.9965 39.2201 29.4442 39.507 29.7308C39.7936 30.0174 40.241 30.0174 40.5276 29.7308ZM41.7278 28.298C41.9604 27.9756 41.8711 27.5099 41.5486 27.295C41.2264 27.0622 40.7605 27.1517 40.5456 27.4741C40.3127 27.7965 40.4023 28.2622 40.7249 28.4771C41.0471 28.7099 41.4949 28.6204 41.7278 28.298ZM42.3186 25.7189C41.9604 25.5577 41.5306 25.701 41.3516 26.0771C41.1904 26.4353 41.3336 26.8652 41.7098 27.0443C42.068 27.2054 42.4979 27.0622 42.6768 26.686C42.8381 26.3099 42.6768 25.8801 42.3186 25.7189ZM43.3039 24.9308C43.4112 24.5368 43.1786 24.1428 42.7844 24.0353C42.3902 23.9279 41.9964 24.1607 41.8888 24.5547C41.7815 24.9487 42.0144 25.3428 42.4082 25.4502C42.8024 25.5398 43.1963 25.3069 43.3039 24.9308ZM43.6261 23.086C43.6621 22.692 43.3576 22.3338 42.9634 22.298C42.5695 22.2622 42.2113 22.5667 42.1753 22.9607C42.1397 23.3547 42.4442 23.7129 42.8381 23.7487C43.2503 23.7666 43.5905 23.4801 43.6261 23.086ZM43.6261 21.2055C43.5905 20.8114 43.2323 20.507 42.8381 20.5428C42.4442 20.5786 42.1397 20.9368 42.1753 21.3308C42.2113 21.7249 42.5695 22.0293 42.9634 21.9935C43.3756 21.9577 43.6621 21.6174 43.6261 21.2055ZM42.7844 20.2562C43.1786 20.1487 43.3936 19.7547 43.3039 19.3607C43.1963 18.9667 42.8024 18.7517 42.4082 18.8413C42.0144 18.9487 41.7995 19.3427 41.8888 19.7368C42.0144 20.1308 42.4082 20.3637 42.7844 20.2562ZM36.5158 12.7696C36.3545 13.1279 36.4978 13.5577 36.874 13.7368C37.2322 13.898 37.662 13.7547 37.8413 13.3786C38.0022 13.0204 37.8589 12.5905 37.4831 12.4114C37.1069 12.2502 36.677 12.4114 36.5158 12.7696ZM35.7277 11.7845C35.3337 11.6771 34.9396 11.9099 34.8322 12.304C34.7247 12.698 34.9576 13.092 35.3516 13.1995C35.7456 13.307 36.1396 13.0741 36.2472 12.6801C36.3368 12.286 36.1039 11.892 35.7277 11.7845ZM33.0949 12.1249C33.0591 12.5189 33.3635 12.8771 33.7576 12.9129C34.1516 12.9487 34.5098 12.6443 34.5456 12.2502C34.5814 11.8562 34.277 11.498 33.8829 11.4622C33.471 11.4263 33.1307 11.7129 33.0949 12.1249ZM32.9337 9.97558C32.5397 9.97558 32.2352 10.298 32.2352 10.6741C32.2352 11.0502 32.5576 11.3726 32.9337 11.3726C33.3277 11.3726 33.6322 11.0502 33.6322 10.6741C33.6322 10.298 33.3277 9.97558 32.9337 9.97558ZM38.683 13.2174C38.2888 13.2174 37.9666 13.5398 37.9666 13.9338C37.9666 14.3278 38.2888 14.6502 38.683 14.6502C39.0768 14.6502 39.3994 14.3278 39.3994 13.9338C39.3994 13.5398 39.0768 13.2174 38.683 13.2174ZM40.0801 14.3816C39.7756 14.3816 39.5426 14.6323 39.5426 14.9189C39.5426 15.2054 39.7936 15.4562 40.0801 15.4562C40.3843 15.4562 40.6172 15.2054 40.6172 14.9189C40.6172 14.6323 40.3667 14.3816 40.0801 14.3816ZM25.8053 14.3816C25.5008 14.3816 25.268 14.6323 25.268 14.9189C25.268 15.2054 25.5188 15.4562 25.8053 15.4562C26.0919 15.4562 26.3426 15.2054 26.3426 14.9189C26.3426 14.6323 26.1098 14.3816 25.8053 14.3816ZM24.6053 15.7249C24.3009 15.7249 24.068 15.9756 24.068 16.2622C24.068 16.5487 24.3187 16.7995 24.6053 16.7995C24.8919 16.7995 25.1426 16.5487 25.1426 16.2622C25.1426 15.9756 24.9098 15.7249 24.6053 15.7249ZM41.28 15.7249C40.9754 15.7249 40.7425 15.9756 40.7425 16.2622C40.7425 16.5487 40.9934 16.7995 41.28 16.7995C41.5846 16.7995 41.8171 16.5487 41.8171 16.2622C41.8171 15.9756 41.5846 15.7249 41.28 15.7249ZM42.05 17.2114C41.6562 17.2114 41.3336 17.5338 41.3336 17.9278C41.3336 18.3219 41.6562 18.6442 42.05 18.6442C42.4442 18.6442 42.7664 18.3219 42.7664 17.9278C42.7664 17.5338 42.4442 17.2114 42.05 17.2114ZM38.683 29.6233C38.2888 29.6233 37.9666 29.9458 37.9666 30.3398C37.9666 30.7338 38.2888 31.0562 38.683 31.0562C39.0768 31.0562 39.3994 30.7338 39.3994 30.3398C39.3994 29.9458 39.0768 29.6233 38.683 29.6233ZM27.2023 29.6233C26.8083 29.6233 26.4859 29.9458 26.4859 30.3398C26.4859 30.7338 26.8083 31.0562 27.2023 31.0562C27.5964 31.0562 27.9187 30.7338 27.9187 30.3398C27.9187 29.9458 27.5964 29.6233 27.2023 29.6233ZM28.5994 30.7517C28.277 30.7517 28.0083 31.0204 28.0083 31.3428C28.0083 31.6651 28.277 31.9338 28.5994 31.9338C28.9217 31.9338 29.1904 31.6651 29.1904 31.3428C29.1904 31.0204 28.9397 30.7517 28.5994 30.7517ZM30.2292 31.7905C29.9964 31.7905 29.7993 31.9875 29.7993 32.2204C29.7993 32.4532 29.9964 32.6502 30.2292 32.6502C30.462 32.6502 30.6591 32.4532 30.6591 32.2204C30.6591 31.9875 30.48 31.7905 30.2292 31.7905ZM35.6382 31.7905C35.4053 31.7905 35.2083 31.9875 35.2083 32.2204C35.2083 32.4532 35.4053 32.6502 35.6382 32.6502C35.871 32.6502 36.0679 32.4532 36.0679 32.2204C36.0679 31.9875 35.871 31.7905 35.6382 31.7905ZM37.2142 30.7517C36.892 30.7517 36.6234 31.0204 36.6234 31.3428C36.6234 31.6651 36.892 31.9338 37.2142 31.9338C37.5367 31.9338 37.8053 31.6651 37.8053 31.3428C37.8053 31.0204 37.5547 30.7517 37.2142 30.7517ZM24.1576 14.0413C23.7636 14.0413 23.4411 14.3637 23.4411 14.7577C23.4411 15.1517 23.7636 15.4741 24.1576 15.4741C24.5516 15.4741 24.874 15.1517 24.874 14.7577C24.8561 14.3637 24.5516 14.0413 24.1576 14.0413ZM27.2023 13.2174C26.8083 13.2174 26.4859 13.5398 26.4859 13.9338C26.4859 14.3278 26.8083 14.6502 27.2023 14.6502C27.5964 14.6502 27.9187 14.3278 27.9187 13.9338C27.9187 13.5398 27.5964 13.2174 27.2023 13.2174ZM23.8352 17.2114C23.4411 17.2114 23.1188 17.5338 23.1188 17.9278C23.1188 18.3219 23.4411 18.6442 23.8352 18.6442C24.2292 18.6442 24.5516 18.3219 24.5516 17.9278C24.5516 17.5338 24.2292 17.2114 23.8352 17.2114Z" fill="url(#paint0_radial_4000_339546)"/>
<path d="M0.583605 19.5234H-0.132812V24.8965H0.583605V19.5234Z" fill="#5328CA"/>
<path d="M31.5655 0H25.2969V0.716418H31.5655V0Z" fill="#5328CA"/>
<path d="M-0.132812 24.8955L31.5687 0.00415897L31.5634 0H20.3129C19.6985 0 19.1158 0.191312 18.6815 0.532346L0.545183 14.7726C0.110841 15.1095 -0.132812 15.5711 -0.132812 16.0536V24.8955Z" fill="#A181FA"/>
<path d="M6.43222 17.3141L3.02178 16.0489C2.89946 16.0033 2.79177 15.9976 2.69379 16.0758C2.5958 16.1541 2.57401 16.2631 2.59135 16.3925L3.07277 19.9958L3.58019 19.5907L3.1763 16.7162L4.50301 17.2156L3.72264 17.8385L3.8004 18.3665L5.0042 17.4056L5.89683 17.7415L6.43222 17.3141Z" fill="white"/>
<path d="M8.21288 14.0484C8.62068 14.5593 8.56085 14.9509 7.86094 15.5095C7.16106 16.0682 6.766 16.0398 6.35816 15.5289L5.22405 14.1081L4.76562 14.474L5.89973 15.8948C6.52826 16.6822 7.21629 16.7403 8.19614 15.9581C9.18297 15.1704 9.27531 14.4894 8.64678 13.702L7.51268 12.2812L7.07877 12.6276L8.21288 14.0484Z" fill="white"/>
<path d="M11.7697 13.0487C12.4871 12.4761 12.5615 11.5 11.9721 10.7616C11.3827 10.0232 10.4563 9.932 9.73889 10.5046L8.26562 11.6806L10.2964 14.2248L11.7697 13.0487ZM10.3826 13.4284L9.0613 11.7731L10.0936 10.9491C10.5521 10.5831 11.1618 10.6579 11.5445 11.1374C11.9271 11.6168 11.8733 12.2384 11.4149 12.6043L10.3826 13.4284Z" fill="white"/>
<path d="M14.194 11.1222L12.1632 8.57812L11.7188 8.93287L13.7495 11.477L14.194 11.1222Z" fill="white"/>
<path d="M16.2613 9.4635L14.5853 7.36383L15.5512 6.59286L15.1964 6.14844L12.8203 8.04513L13.1751 8.48955L14.1409 7.71861L15.8169 9.81828L16.2613 9.4635Z" fill="white"/>
<path d="M20.1492 6.36162L19.7944 5.91717L17.9607 7.38089L16.6395 5.72568L18.4697 4.26473L18.1149 3.82031L15.8438 5.6332L17.8745 8.17732L20.1492 6.36162ZM19.1685 5.334L18.8696 4.95957L17.4593 6.08529L17.7582 6.45972L19.1685 5.334Z" fill="white"/>
<path d="M22.3556 4.60341C23.073 4.03076 23.1474 3.05466 22.558 2.31627C21.9687 1.57789 21.0422 1.48668 20.3248 2.05932L18.8516 3.23533L20.8823 5.77942L22.3556 4.60341ZM20.9685 4.98303L19.6472 3.3278L20.6796 2.50375C21.138 2.13782 21.7477 2.21261 22.1304 2.69203C22.5131 3.17145 22.4593 3.79305 22.0008 4.15899L20.9685 4.98303Z" fill="white"/>
</g>
<defs>
<radialGradient id="paint0_radial_4000_339546" cx="0" cy="0" r="1" gradientUnits="userSpaceOnUse" gradientTransform="translate(32.8452 22.2289) scale(16.086 16.086)">
<stop stopColor="#E2D8ED"/>
<stop offset="0.2073" stopColor="#DFD5ED"/>
<stop offset="0.3762" stopColor="#D7CBEB"/>
<stop offset="0.5315" stopColor="#C9BAE9"/>
<stop offset="0.6787" stopColor="#B6A2E6"/>
<stop offset="0.8202" stopColor="#9D83E2"/>
<stop offset="0.9555" stopColor="#7E5DDD"/>
<stop offset="1" stopColor="#734FDB"/>
</radialGradient>
<clipPath id="clip0_4000_339546">
<rect width="144" height="43.92" fill="white"/>
</clipPath>
</defs>
</svg>
