<svg width="180" height="117" viewBox="0 0 180 117" fill="none" xmlns="http://www.w3.org/2000/svg">
<path d="M43.833 28.312H31.801V40.536H23.225V28.312H11.193V20.184H23.225V7.896H31.801V20.184H43.833V28.312ZM83.8695 8.088H63.4535V18.712C64.3495 17.7307 65.5868 16.92 67.1655 16.28C68.7442 15.5973 70.4295 15.256 72.2215 15.256C75.8055 15.256 78.7068 16.024 80.9255 17.56C83.1868 19.096 84.7868 21.0373 85.7255 23.384C86.7068 25.7307 87.1975 28.1627 87.1975 30.68C87.1975 35.6293 85.7682 39.5973 82.9095 42.584C80.0935 45.528 76.0402 47 70.7495 47C65.9708 47 62.1308 45.8267 59.2295 43.48C56.3708 41.0907 54.6855 37.976 54.1735 34.136H63.0055C63.3895 35.8 64.2642 37.1227 65.6295 38.104C67.0375 39.0853 68.7868 39.576 70.8775 39.576C73.4375 39.576 75.3575 38.7867 76.6375 37.208C77.9175 35.6293 78.5575 33.5387 78.5575 30.936C78.5575 28.3333 77.8962 26.328 76.5735 24.92C75.2935 23.512 73.3948 22.808 70.8775 22.808C69.0428 22.808 67.5068 23.256 66.2695 24.152C65.0748 25.048 64.2642 26.2427 63.8375 27.736H55.2615V0.216H83.8695V8.088ZM111.297 46.872C99.777 46.872 94.017 39.128 94.017 23.64C94.017 8.19466 99.777 0.471996 111.297 0.471996C122.774 0.471996 128.513 8.19466 128.513 23.64C128.513 39.128 122.774 46.872 111.297 46.872ZM119.105 31.384C119.532 29.2507 119.745 26.6693 119.745 23.64C119.745 20.6107 119.532 18.0507 119.105 15.96C118.721 13.8267 117.91 12.0987 116.673 10.776C115.478 9.45333 113.686 8.792 111.297 8.792C108.908 8.792 107.094 9.45333 105.857 10.776C104.662 12.0987 103.852 13.8267 103.425 15.96C103.041 18.0507 102.849 20.6107 102.849 23.64C102.849 26.6693 103.041 29.2507 103.425 31.384C103.852 33.5173 104.662 35.2453 105.857 36.568C107.094 37.8907 108.908 38.552 111.297 38.552C113.686 38.552 115.478 37.8907 116.673 36.568C117.91 35.2453 118.721 33.5173 119.105 31.384ZM152.672 46.872C141.152 46.872 135.392 39.128 135.392 23.64C135.392 8.19466 141.152 0.471996 152.672 0.471996C164.149 0.471996 169.888 8.19466 169.888 23.64C169.888 39.128 164.149 46.872 152.672 46.872ZM160.48 31.384C160.907 29.2507 161.12 26.6693 161.12 23.64C161.12 20.6107 160.907 18.0507 160.48 15.96C160.096 13.8267 159.285 12.0987 158.048 10.776C156.853 9.45333 155.061 8.792 152.672 8.792C150.283 8.792 148.469 9.45333 147.232 10.776C146.037 12.0987 145.227 13.8267 144.8 15.96C144.416 18.0507 144.224 20.6107 144.224 23.64C144.224 26.6693 144.416 29.2507 144.8 31.384C145.227 33.5173 146.037 35.2453 147.232 36.568C148.469 37.8907 150.283 38.552 152.672 38.552C155.061 38.552 156.853 37.8907 158.048 36.568C159.285 35.2453 160.096 33.5173 160.48 31.384ZM33.096 98.008C33.096 100.227 32.52 102.317 31.368 104.28C30.216 106.243 28.5733 107.864 26.44 109.144C24.3067 110.424 21.8107 111.171 18.952 111.384V116.568H15.24V111.384C10.888 111.085 7.38933 109.805 4.744 107.544C2.14133 105.283 0.84 102.232 0.84 98.392H10.44C10.696 101.635 12.296 103.533 15.24 104.088V91.864C11.9547 91.0107 9.416 90.2427 7.624 89.56C5.87467 88.8347 4.296 87.64 2.888 85.976C1.52267 84.2693 0.84 81.9653 0.84 79.064C0.84 76.5893 1.45867 74.392 2.696 72.472C3.93333 70.5093 5.64 68.952 7.816 67.8C10.0347 66.648 12.5093 65.9653 15.24 65.752V60.568H18.952V65.752C23.0907 66.008 26.376 67.2027 28.808 69.336C31.2827 71.4267 32.6267 74.4773 32.84 78.488H23.432C23.304 77.208 22.8347 76.0987 22.024 75.16C21.256 74.2213 20.232 73.56 18.952 73.176V85.272C22.1093 86.0827 24.584 86.8507 26.376 87.576C28.168 88.2587 29.7253 89.432 31.048 91.096C32.4133 92.76 33.096 95.064 33.096 98.008ZM10.184 78.488C10.184 79.9387 10.6107 81.112 11.464 82.008C12.36 82.904 13.6187 83.6293 15.24 84.184V73.048C13.704 73.304 12.4667 73.88 11.528 74.776C10.632 75.672 10.184 76.9093 10.184 78.488ZM18.952 104.088C20.488 103.789 21.6827 103.149 22.536 102.168C23.3893 101.144 23.816 99.928 23.816 98.52C23.816 97.112 23.3893 95.9813 22.536 95.128C21.7253 94.2747 20.5307 93.5493 18.952 92.952V104.088ZM91.9415 66.328V111H82.9815V82.776L70.8215 111H64.3575L52.2615 82.904V111H43.2375V66.328H53.2855L67.6215 99.416L81.9575 66.328H91.9415ZM139.822 111H130.798L110.574 80.024V111H101.55V66.2H110.574L130.798 97.176V66.2H139.822V111ZM179.889 66.328V73.24H167.793V111H158.833V73.24H146.801V66.328H179.889Z" fill="#FF0088"/>
</svg>
