<svg width="265" height="148" viewBox="0 0 265 148" fill="none" xmlns="http://www.w3.org/2000/svg">
<path d="M54.4867 145.6C18.4867 145.6 0.486719 121.4 0.486719 73C0.486719 24.7333 18.4867 0.599988 54.4867 0.599988C90.3534 0.599988 108.287 24.7333 108.287 73C108.287 121.4 90.3534 145.6 54.4867 145.6ZM78.8867 97.2C80.2201 90.5333 80.8867 82.4667 80.8867 73C80.8867 63.5333 80.2201 55.5333 78.8867 49C77.6867 42.3333 75.1534 36.9333 71.2867 32.8C67.5534 28.6667 61.9534 26.6 54.4867 26.6C47.0201 26.6 41.3534 28.6667 37.4867 32.8C33.7534 36.9333 31.2201 42.3333 29.8867 49C28.6867 55.5333 28.0867 63.5333 28.0867 73C28.0867 82.4667 28.6867 90.5333 29.8867 97.2C31.2201 103.867 33.7534 109.267 37.4867 113.4C41.3534 117.533 47.0201 119.6 54.4867 119.6C61.9534 119.6 67.5534 117.533 71.2867 113.4C75.1534 109.267 77.6867 103.867 78.8867 97.2ZM158.184 3.99999C167.384 3.99999 174.917 6.86666 180.784 12.6C186.784 18.2 189.784 26 189.784 36C189.784 46 186.85 53.8667 180.984 59.6C175.117 65.3333 167.517 68.2 158.184 68.2C148.85 68.2 141.184 65.3333 135.184 59.6C129.317 53.8667 126.384 46 126.384 36C126.384 26 129.317 18.2 135.184 12.6C141.184 6.86666 148.85 3.99999 158.184 3.99999ZM248.584 5.99999L169.984 146H142.784L221.184 5.99999H248.584ZM146.784 36C146.784 41.2 147.784 45.0667 149.784 47.6C151.784 50.1333 154.517 51.4 157.984 51.4C161.584 51.4 164.384 50.1333 166.384 47.6C168.384 45.0667 169.384 41.2 169.384 36C169.384 25.8667 165.584 20.8 157.984 20.8C154.517 20.8 151.784 22.0667 149.784 24.6C147.784 27 146.784 30.8 146.784 36ZM233.384 83.8C242.584 83.8 250.117 86.6667 255.984 92.4C261.984 98 264.984 105.8 264.984 115.8C264.984 125.933 262.05 133.867 256.184 139.6C250.317 145.2 242.717 148 233.384 148C224.05 148 216.384 145.2 210.384 139.6C204.517 133.867 201.584 125.933 201.584 115.8C201.584 105.8 204.517 98 210.384 92.4C216.384 86.6667 224.05 83.8 233.384 83.8ZM221.984 115.8C221.984 126.067 225.717 131.2 233.184 131.2C236.65 131.2 239.384 129.933 241.384 127.4C243.384 124.867 244.384 121 244.384 115.8C244.384 110.733 243.384 106.933 241.384 104.4C239.384 101.867 236.65 100.6 233.184 100.6C229.584 100.6 226.784 101.867 224.784 104.4C222.917 106.933 221.984 110.733 221.984 115.8Z" fill="#FF0088"/>
</svg>
