<svg width="32" height="32" viewBox="0 0 32 32" fill="none" xmlns="http://www.w3.org/2000/svg">
<mask id="mask0_3333_33446" style="mask-type:alpha" maskUnits="userSpaceOnUse" x="0" y="0" width="32" height="32">
<rect width="32" height="32" fill="#D9D9D9"/>
</mask>
<g mask="url(#mask0_3333_33446)">
<path d="M16.0013 22.6666C16.3791 22.6666 16.6957 22.5389 16.9513 22.2833C17.2069 22.0278 17.3346 21.7111 17.3346 21.3333C17.3346 20.9555 17.2069 20.6389 16.9513 20.3833C16.6957 20.1278 16.3791 20 16.0013 20C15.6235 20 15.3069 20.1278 15.0513 20.3833C14.7957 20.6389 14.668 20.9555 14.668 21.3333C14.668 21.7111 14.7957 22.0278 15.0513 22.2833C15.3069 22.5389 15.6235 22.6666 16.0013 22.6666ZM16.0013 17.3333C16.3791 17.3333 16.6957 17.2055 16.9513 16.95C17.2069 16.6944 17.3346 16.3778 17.3346 16C17.3346 15.6222 17.2069 15.3055 16.9513 15.05C16.6957 14.7944 16.3791 14.6666 16.0013 14.6666C15.6235 14.6666 15.3069 14.7944 15.0513 15.05C14.7957 15.3055 14.668 15.6222 14.668 16C14.668 16.3778 14.7957 16.6944 15.0513 16.95C15.3069 17.2055 15.6235 17.3333 16.0013 17.3333ZM16.0013 12C16.3791 12 16.6957 11.8722 16.9513 11.6166C17.2069 11.3611 17.3346 11.0444 17.3346 10.6666C17.3346 10.2889 17.2069 9.9722 16.9513 9.71665C16.6957 9.46109 16.3791 9.33331 16.0013 9.33331C15.6235 9.33331 15.3069 9.46109 15.0513 9.71665C14.7957 9.9722 14.668 10.2889 14.668 10.6666C14.668 11.0444 14.7957 11.3611 15.0513 11.6166C15.3069 11.8722 15.6235 12 16.0013 12ZM26.668 26.6666H5.33464C4.6013 26.6666 3.97352 26.4055 3.4513 25.8833C2.92908 25.3611 2.66797 24.7333 2.66797 24V18.6666C3.4013 18.6666 4.02908 18.4055 4.5513 17.8833C5.07352 17.3611 5.33464 16.7333 5.33464 16C5.33464 15.2666 5.07352 14.6389 4.5513 14.1166C4.02908 13.5944 3.4013 13.3333 2.66797 13.3333V7.99998C2.66797 7.26665 2.92908 6.63887 3.4513 6.11665C3.97352 5.59442 4.6013 5.33331 5.33464 5.33331H26.668C27.4013 5.33331 28.0291 5.59442 28.5513 6.11665C29.0735 6.63887 29.3346 7.26665 29.3346 7.99998V13.3333C28.6013 13.3333 27.9735 13.5944 27.4513 14.1166C26.9291 14.6389 26.668 15.2666 26.668 16C26.668 16.7333 26.9291 17.3611 27.4513 17.8833C27.9735 18.4055 28.6013 18.6666 29.3346 18.6666V24C29.3346 24.7333 29.0735 25.3611 28.5513 25.8833C28.0291 26.4055 27.4013 26.6666 26.668 26.6666ZM26.668 24V20.6C25.8457 20.1111 25.1957 19.4611 24.718 18.65C24.2402 17.8389 24.0013 16.9555 24.0013 16C24.0013 15.0444 24.2402 14.1611 24.718 13.35C25.1957 12.5389 25.8457 11.8889 26.668 11.4V7.99998H5.33464V11.4C6.15686 11.8889 6.80686 12.5389 7.28464 13.35C7.76241 14.1611 8.0013 15.0444 8.0013 16C8.0013 16.9555 7.76241 17.8389 7.28464 18.65C6.80686 19.4611 6.15686 20.1111 5.33464 20.6V24H26.668Z" fill="#FF0088"/>
</g>
</svg>
