<?xml version="1.0" encoding="utf-8"?>
<!-- Generator: Adobe Illustrator 26.5.0, SVG Export Plug-In . SVG Version: 6.00 Build 0)  -->
<svg version="1.1" id="Layer_1" xmlns="http://www.w3.org/2000/svg" xmlns:xlink="http://www.w3.org/1999/xlink" x="0px" y="0px"
	 viewBox="0 0 512 512" style="enable-background:new 0 0 512 512;" xml:space="preserve">
<style type="text/css">
	.st0{fill:#F36A22;}
	.st1{fill:#F3852F;}
	.st2{fill:#F2C32E;}
	.st3{fill:#CBDC38;}
	.st4{fill:#B5D66D;}
	.st5{fill:#69C5E5;}
	.st6{fill:#6D9FD5;}
</style>
<g id="XMLID_23_">
	<polyline id="XMLID_25_" class="st0" points="512,149.95 512,362.05 505.13,362.75 258.38,259.09 256,256 512,149.95 	"/>
	<polyline id="XMLID_29_" class="st1" points="512,362.05 362.05,512 359.8,510.18 255.16,263.01 256,256 512,362.05 	"/>
	<polyline id="XMLID_30_" class="st2" points="256,256 250.39,259.93 149.11,507.65 149.95,512 362.05,512 256,256 	"/>
	<polyline id="XMLID_31_" class="st3" points="0,362.05 6.31,357.14 250.39,255.16 256,256 149.95,512 0,362.05 	"/>
	<polyline id="XMLID_32_" class="st4" points="0,149.95 6.31,149.53 252.49,250.53 256,256 0,362.05 0,149.95 	"/>
	<polyline id="XMLID_33_" class="st5" points="149.95,0 0,149.95 256,256 256.42,249.55 161.03,6.03 149.95,0 	"/>
	<polyline id="XMLID_34_" class="st6" points="149.95,0 362.05,0 256,256 149.95,0 	"/>
</g>
</svg>
