<?xml version="1.0" encoding="utf-8"?>
<!-- Generator: Adobe Illustrator 25.4.1, SVG Export Plug-In . SVG Version: 6.00 Build 0)  -->
<svg version="1.1" id="Layer_1" xmlns="http://www.w3.org/2000/svg" xmlns:xlink="http://www.w3.org/1999/xlink" x="0px" y="0px"
	 viewBox="0 0 1024 987" style="enable-background:new 0 0 1024 987;" xml:space="preserve">
<style type="text/css">
	.st0{fill-rule:evenodd;clip-rule:evenodd;fill:#FF0088;}
</style>
<path class="st0" d="M762.3,378.2c32.2-120.1-39-243.6-158.9-275.7c-120-32.1-243.3,39.2-275.5,159.3
	c-18.9,70.5-2.2,142.2,39.2,195.9c-14,5.8-27.4,12.9-39.9,21.4L266,191.6c-0.2-1-1.4-1.4-2.2-0.9L104.8,302c-2.8,2-4.1,5.4-3.4,8.7
	l62.6,294.3c0.7,3.1,3,5.6,6.1,6.4l60.7,16.3c-19.8,113.6,50,225.4,163.3,255.7c120,32.1,243.3-39.2,275.5-159.3
	c13.4-50.1,8.9-100.7-9.6-145l22-12.7c0.8-0.5,1.9,0,2.1,0.9l38.7,181.9c0.7,3.1,3,5.6,6.1,6.4l171.8,46c1,0.3,2-0.6,1.8-1.7
	l-67-315.4c-0.8-3.6,0.9-7.3,4.1-9.1l79.2-45.7c3.2-1.8,4.8-5.5,4.1-9.1l-20.3-95.5c-0.2-0.9-1.2-1.4-2.1-1l-145.8,77.6
	C757.5,394.3,760.1,386.4,762.3,378.2z"/>
</svg>
