<svg width="32" height="32" viewBox="0 0 32 32" fill="none" xmlns="http://www.w3.org/2000/svg">
<mask id="mask0_2980_32208" style="mask-type:alpha" maskUnits="userSpaceOnUse" x="0" y="0" width="32" height="32">
<rect width="32" height="32" fill="#D9D9D9"/>
</mask>
<g mask="url(#mask0_2980_32208)">
<path d="M14.8013 25.3333H17.1346V23.6667C18.2457 23.4667 19.2013 23.0333 20.0013 22.3667C20.8013 21.7 21.2013 20.7111 21.2013 19.4C21.2013 18.4667 20.9346 17.6111 20.4013 16.8333C19.868 16.0555 18.8013 15.3778 17.2013 14.8C15.868 14.3555 14.9457 13.9667 14.4346 13.6333C13.9235 13.3 13.668 12.8444 13.668 12.2667C13.668 11.6889 13.8735 11.2333 14.2846 10.9C14.6957 10.5667 15.2902 10.4 16.068 10.4C16.7791 10.4 17.3346 10.5722 17.7346 10.9167C18.1346 11.2611 18.4235 11.6889 18.6013 12.2L20.7346 11.3333C20.4902 10.5555 20.0402 9.87777 19.3846 9.29999C18.7291 8.72221 18.0013 8.39999 17.2013 8.33332V6.66666H14.868V8.33332C13.7569 8.57777 12.8902 9.06666 12.268 9.79999C11.6457 10.5333 11.3346 11.3555 11.3346 12.2667C11.3346 13.3111 11.6402 14.1555 12.2513 14.8C12.8624 15.4444 13.8235 16 15.1346 16.4667C16.5346 16.9778 17.5069 17.4333 18.0513 17.8333C18.5957 18.2333 18.868 18.7555 18.868 19.4C18.868 20.1333 18.6069 20.6722 18.0846 21.0167C17.5624 21.3611 16.9346 21.5333 16.2013 21.5333C15.468 21.5333 14.818 21.3055 14.2513 20.85C13.6846 20.3944 13.268 19.7111 13.0013 18.8L10.8013 19.6667C11.1124 20.7333 11.5957 21.5944 12.2513 22.25C12.9069 22.9055 13.7569 23.3555 14.8013 23.6V25.3333ZM16.0013 29.3333C14.1569 29.3333 12.4235 28.9833 10.8013 28.2833C9.17908 27.5833 7.76797 26.6333 6.56797 25.4333C5.36797 24.2333 4.41797 22.8222 3.71797 21.2C3.01797 19.5778 2.66797 17.8444 2.66797 16C2.66797 14.1555 3.01797 12.4222 3.71797 10.8C4.41797 9.17777 5.36797 7.76666 6.56797 6.56666C7.76797 5.36666 9.17908 4.41666 10.8013 3.71666C12.4235 3.01666 14.1569 2.66666 16.0013 2.66666C17.8457 2.66666 19.5791 3.01666 21.2013 3.71666C22.8235 4.41666 24.2346 5.36666 25.4346 6.56666C26.6346 7.76666 27.5846 9.17777 28.2846 10.8C28.9846 12.4222 29.3346 14.1555 29.3346 16C29.3346 17.8444 28.9846 19.5778 28.2846 21.2C27.5846 22.8222 26.6346 24.2333 25.4346 25.4333C24.2346 26.6333 22.8235 27.5833 21.2013 28.2833C19.5791 28.9833 17.8457 29.3333 16.0013 29.3333ZM16.0013 26.6667C18.9791 26.6667 21.5013 25.6333 23.568 23.5667C25.6346 21.5 26.668 18.9778 26.668 16C26.668 13.0222 25.6346 10.5 23.568 8.43332C21.5013 6.36666 18.9791 5.33332 16.0013 5.33332C13.0235 5.33332 10.5013 6.36666 8.43464 8.43332C6.36797 10.5 5.33464 13.0222 5.33464 16C5.33464 18.9778 6.36797 21.5 8.43464 23.5667C10.5013 25.6333 13.0235 26.6667 16.0013 26.6667Z" fill="#FF0088"/>
</g>
</svg>
