<svg width="44" height="69" viewBox="0 0 44 69" fill="none" xmlns="http://www.w3.org/2000/svg">
<path d="M39.1363 24.5132H35.7763V14.6732C35.7763 7.11316 29.6563 0.993164 22.0963 0.993164C14.5363 0.993164 8.41635 7.11316 8.41635 14.6732V24.5132H5.05635C2.41635 24.5132 0.256348 26.6732 0.256348 29.3132V63.3932C0.256348 66.0332 2.41635 68.1932 5.05635 68.1932H39.1363C41.7763 68.1932 43.9363 66.0332 43.9363 63.3932V29.3132C43.9363 26.6732 41.7763 24.5132 39.1363 24.5132ZM26.2963 57.0332H18.0163L19.5763 46.4732C17.7764 45.5132 16.4563 43.5932 16.4563 41.4332C16.4563 38.3132 18.9763 35.6732 22.2163 35.6732C25.4563 35.6732 27.9763 38.1932 27.9763 41.4332C27.9763 43.5932 26.6563 45.5132 24.8563 46.4732L26.2963 57.0332ZM30.9763 24.5132H13.2163V14.6732C13.2163 9.75316 17.1763 5.79316 22.0963 5.79316C27.0163 5.79316 30.9763 9.75316 30.9763 14.6732V24.5132Z" fill="#3E393E"/>
</svg>
